# xmcd
#
# Track frame offsets:
# 150
# 12547
# 24846
# 39929
# 51061
# 64815
# 78548
# 96243
# 109495
# 124311
# 134208
# 137050
# 144850
# 156619
# 160898
# 170138
# 182166
# 193404
# 208233
# 215022
#
# Disc length: 3066 seconds
#
#
# Revision: 0
# Processed by: cddbd v1.5.2PL0 Copyright (c) Steve Scherf et al.
# Submitted via: FreeRIP 2.70 
#
DISCID=3d0bf814
DTITLE=Dark Holler - old-time sounds
DYEAR=2002
DGENRE=Bluegrass
TTITLE0=sitting on top of the world
TTITLE1=red wagon
TTITLE2=lonesome river
TTITLE3=key to the highway
TTITLE4=come all ye fair and tender ladies
TTITLE5=just because
TTITLE6=will the circle be unbroken?
TTITLE7=i saw the light
TTITLE8=katy dear
TTITLE9=jesus is on the main line
TTITLE10=Folkways Intro
TTITLE11=Folkways Hello Interview
TTITLE12=rollin' in my sweet baby's arms
TTITLE13=Folkways interview 2
TTITLE14=miss molly
TTITLE15=the girl i love don't pay no mind
TTITLE16=Folkways interview 3
TTITLE17=by the mark
TTITLE18=Folkways interview 4
TTITLE19=rank stranger
EXTD=Tracks 11-20 recorded live March 9, '02 live at the KUT 90.5 FM studio for the Folkways show.
EXTT0=
EXTT1=
EXTT2=
EXTT3=
EXTT4=
EXTT5=
EXTT6=
EXTT7=
EXTT8=
EXTT9=
EXTT10=
EXTT11=
EXTT12=
EXTT13=
EXTT14=
EXTT15=
EXTT16=
EXTT17=
EXTT18=
EXTT19=
PLAYORDER=
